<svg width="122" height="54" viewBox="0 0 122 54" fill="none" xmlns="http://www.w3.org/2000/svg">
    <path d="M13.0644 35.246L13.2254 36.994C13.4094 36.7027 13.6317 36.4343 13.8924 36.189C14.153 35.9437 14.4214 35.7367 14.6974 35.568C14.9887 35.384 15.2724 35.246 15.5484 35.154C15.8397 35.0467 16.108 34.993 16.3534 34.993C16.384 35.3917 16.407 35.8517 16.4224 36.373C16.453 36.879 16.4684 37.4003 16.4684 37.937C16.4684 38.5503 16.453 39.156 16.4224 39.754C16.407 40.352 16.384 40.904 16.3534 41.41C16.2154 41.3487 16.0237 41.3027 15.7784 41.272C15.533 41.2413 15.326 41.226 15.1574 41.226C14.59 41.226 14.1684 41.364 13.8924 41.64C13.6317 41.9007 13.5014 42.2303 13.5014 42.629V49H10.1204C10.1357 46.516 10.1434 44.1623 10.1434 41.939C10.1587 39.7003 10.1664 37.4693 10.1664 35.246H13.0644ZM22.3208 34.993C24.1914 34.993 25.5254 35.6063 26.3228 36.833C27.1354 38.0597 27.5418 39.823 27.5418 42.123C27.5418 44.4383 27.1354 46.2093 26.3228 47.436C25.5254 48.6473 24.1914 49.253 22.3208 49.253C20.4348 49.253 19.0854 48.6473 18.2728 47.436C17.4754 46.2093 17.0768 44.4383 17.0768 42.123C17.0768 39.823 17.4754 38.0597 18.2728 36.833C19.0854 35.6063 20.4348 34.993 22.3208 34.993ZM22.3208 43.848C22.6274 43.848 22.8958 43.7867 23.1258 43.664C23.3711 43.5413 23.5704 43.3803 23.7238 43.181C23.8771 42.9817 23.9921 42.7593 24.0688 42.514C24.1454 42.2533 24.1838 41.985 24.1838 41.709C24.1838 41.433 24.1454 41.1647 24.0688 40.904C23.9921 40.6433 23.8771 40.4133 23.7238 40.214C23.5704 40.0147 23.3711 39.8537 23.1258 39.731C22.8958 39.6083 22.6274 39.547 22.3208 39.547C21.6921 39.547 21.2168 39.7693 20.8948 40.214C20.5881 40.6587 20.4348 41.157 20.4348 41.709C20.4348 41.985 20.4731 42.2533 20.5498 42.514C20.6264 42.7593 20.7414 42.9817 20.8948 43.181C21.0634 43.3803 21.2628 43.5413 21.4928 43.664C21.7228 43.7867 21.9988 43.848 22.3208 43.848ZM33.3266 34.993C35.1973 34.993 36.5313 35.6063 37.3286 36.833C38.1413 38.0597 38.5476 39.823 38.5476 42.123C38.5476 44.4383 38.1413 46.2093 37.3286 47.436C36.5313 48.6473 35.1973 49.253 33.3266 49.253C31.4406 49.253 30.0913 48.6473 29.2786 47.436C28.4813 46.2093 28.0826 44.4383 28.0826 42.123C28.0826 39.823 28.4813 38.0597 29.2786 36.833C30.0913 35.6063 31.4406 34.993 33.3266 34.993ZM33.3266 43.848C33.6333 43.848 33.9016 43.7867 34.1316 43.664C34.377 43.5413 34.5763 43.3803 34.7296 43.181C34.883 42.9817 34.998 42.7593 35.0746 42.514C35.1513 42.2533 35.1896 41.985 35.1896 41.709C35.1896 41.433 35.1513 41.1647 35.0746 40.904C34.998 40.6433 34.883 40.4133 34.7296 40.214C34.5763 40.0147 34.377 39.8537 34.1316 39.731C33.9016 39.6083 33.6333 39.547 33.3266 39.547C32.698 39.547 32.2226 39.7693 31.9006 40.214C31.594 40.6587 31.4406 41.157 31.4406 41.709C31.4406 41.985 31.479 42.2533 31.5556 42.514C31.6323 42.7593 31.7473 42.9817 31.9006 43.181C32.0693 43.3803 32.2686 43.5413 32.4986 43.664C32.7286 43.7867 33.0046 43.848 33.3266 43.848ZM42.7225 35.246V36.465C43.0292 35.9743 43.4355 35.6063 43.9415 35.361C44.4628 35.1157 45.0148 34.993 45.5975 34.993C46.1495 34.993 46.6555 35.1157 47.1155 35.361C47.5755 35.591 47.9282 35.9667 48.1735 36.488C48.4495 35.9973 48.8635 35.6293 49.4155 35.384C49.9828 35.1233 50.5962 34.993 51.2555 34.993C52.2522 34.993 53.0112 35.315 53.5325 35.959C54.0692 36.5877 54.3375 37.6533 54.3375 39.156V49H50.9565V41.939C50.9565 41.3717 50.8338 40.9653 50.5885 40.72C50.3585 40.4593 50.0902 40.329 49.7835 40.329C49.4768 40.329 49.1932 40.4593 48.9325 40.72C48.6718 40.9653 48.5415 41.3103 48.5415 41.755V49H45.1605V42.215C45.1605 41.617 45.0225 41.18 44.7465 40.904C44.4858 40.628 44.2022 40.49 43.8955 40.49C43.5888 40.49 43.3128 40.628 43.0675 40.904C42.8375 41.1647 42.7225 41.5173 42.7225 41.962V49H39.3875C39.3875 48.54 39.3875 48.0263 39.3875 47.459C39.3875 46.8917 39.3875 46.3167 39.3875 45.734C39.4028 45.1513 39.4105 44.5993 39.4105 44.078C39.4105 43.5413 39.4105 43.0737 39.4105 42.675C39.4105 42.2917 39.4105 41.801 39.4105 41.203C39.4105 40.5897 39.4028 39.938 39.3875 39.248C39.3875 38.558 39.3875 37.868 39.3875 37.178C39.3875 36.4727 39.3875 35.8287 39.3875 35.246H42.7225ZM55.4011 29.657H58.6671V36.396C59.0811 35.9973 59.5641 35.6677 60.1161 35.407C60.6834 35.131 61.2814 34.993 61.9101 34.993C62.6307 34.993 63.2977 35.1847 63.9111 35.568C64.5397 35.936 65.0764 36.4573 65.5211 37.132C65.9811 37.7913 66.3414 38.5733 66.6021 39.478C66.8627 40.3827 66.9931 41.3563 66.9931 42.399C66.9931 43.3957 66.8704 44.3157 66.6251 45.159C66.3797 46.0023 66.0424 46.7307 65.6131 47.344C65.1991 47.942 64.7007 48.4097 64.1181 48.747C63.5354 49.0843 62.8991 49.253 62.2091 49.253C61.6264 49.253 61.0284 49.138 60.4151 48.908C59.8017 48.6627 59.2191 48.3177 58.6671 47.873V49H55.5161L55.4011 29.657ZM58.6671 40.697C58.6671 41.3257 58.8357 41.8317 59.1731 42.215C59.5257 42.5983 59.9704 42.79 60.5071 42.79C61.0897 42.79 61.5804 42.583 61.9791 42.169C62.3931 41.755 62.6001 41.226 62.6001 40.582C62.6001 40.2907 62.5464 40.0147 62.4391 39.754C62.3471 39.4933 62.2091 39.271 62.0251 39.087C61.8411 38.8877 61.6264 38.7343 61.3811 38.627C61.1511 38.5197 60.8981 38.466 60.6221 38.466C60.0547 38.466 59.5871 38.673 59.2191 39.087C58.8511 39.501 58.6671 40.0377 58.6671 40.697ZM73.8496 49V47.781C73.4816 48.2257 73.0369 48.586 72.5156 48.862C71.9943 49.1227 71.4653 49.253 70.9286 49.253C70.5913 49.253 70.2616 49.1993 69.9396 49.092C69.6329 49 69.3493 48.8697 69.0886 48.701C68.8279 48.5323 68.5979 48.333 68.3986 48.103C68.2146 47.8577 68.0766 47.597 67.9846 47.321C67.9233 47.1063 67.8696 46.7997 67.8236 46.401C67.7929 45.987 67.7776 45.55 67.7776 45.09V35.246H71.1586V42.146C71.1586 42.606 71.2659 42.974 71.4806 43.25C71.6953 43.5107 71.9866 43.641 72.3546 43.641C72.5386 43.641 72.7226 43.6027 72.9066 43.526C73.1059 43.4493 73.2746 43.3497 73.4126 43.227C73.5659 43.1043 73.6886 42.9587 73.7806 42.79C73.8726 42.6213 73.9186 42.445 73.9186 42.261V35.246H77.2996C77.2843 35.752 77.2689 36.2887 77.2536 36.856C77.2383 37.408 77.2229 37.9677 77.2076 38.535C77.1923 39.087 77.1769 39.639 77.1616 40.191C77.1616 40.743 77.1616 41.2643 77.1616 41.755C77.1616 42.0463 77.1616 42.4833 77.1616 43.066C77.1616 43.6487 77.1616 44.285 77.1616 44.975C77.1769 45.665 77.1846 46.3703 77.1846 47.091C77.1846 47.8117 77.1846 48.448 77.1846 49H73.8496ZM89.4892 49H86.3382V47.873C85.7862 48.3177 85.2036 48.6627 84.5902 48.908C83.9769 49.138 83.3789 49.253 82.7962 49.253C82.1062 49.253 81.4699 49.0843 80.8872 48.747C80.3046 48.4097 79.7986 47.942 79.3692 47.344C78.9552 46.7307 78.6256 46.0023 78.3802 45.159C78.1349 44.3157 78.0122 43.3957 78.0122 42.399C78.0122 41.3563 78.1426 40.3827 78.4032 39.478C78.6639 38.5733 79.0166 37.7913 79.4612 37.132C79.9212 36.4573 80.4579 35.936 81.0712 35.568C81.6999 35.1847 82.3746 34.993 83.0952 34.993C83.7239 34.993 84.3219 35.131 84.8892 35.407C85.4566 35.6677 85.9396 35.9973 86.3382 36.396V29.657H89.6042L89.4892 49ZM82.4052 40.697C82.4052 41.3257 82.5739 41.8317 82.9112 42.215C83.2639 42.5983 83.7086 42.79 84.2452 42.79C84.8279 42.79 85.3186 42.583 85.7172 42.169C86.1312 41.755 86.3382 41.226 86.3382 40.582C86.3382 40.2907 86.2846 40.0147 86.1772 39.754C86.0852 39.4933 85.9472 39.271 85.7632 39.087C85.5792 38.8877 85.3646 38.7343 85.1192 38.627C84.8739 38.5197 84.6132 38.466 84.3372 38.466C83.7852 38.466 83.3252 38.673 82.9572 39.087C82.5892 39.501 82.4052 40.0377 82.4052 40.697ZM101.843 49H98.6917V47.873C98.1397 48.3177 97.5571 48.6627 96.9437 48.908C96.3304 49.138 95.7324 49.253 95.1497 49.253C94.4597 49.253 93.8234 49.0843 93.2407 48.747C92.6581 48.4097 92.1521 47.942 91.7227 47.344C91.3087 46.7307 90.9791 46.0023 90.7337 45.159C90.4884 44.3157 90.3657 43.3957 90.3657 42.399C90.3657 41.3563 90.4961 40.3827 90.7567 39.478C91.0174 38.5733 91.3701 37.7913 91.8147 37.132C92.2747 36.4573 92.8114 35.936 93.4247 35.568C94.0534 35.1847 94.7281 34.993 95.4487 34.993C96.0774 34.993 96.6754 35.131 97.2427 35.407C97.8101 35.6677 98.2931 35.9973 98.6917 36.396V29.657H101.958L101.843 49ZM94.7587 40.697C94.7587 41.3257 94.9274 41.8317 95.2647 42.215C95.6174 42.5983 96.0621 42.79 96.5987 42.79C97.1814 42.79 97.6721 42.583 98.0707 42.169C98.4847 41.755 98.6917 41.226 98.6917 40.582C98.6917 40.2907 98.6381 40.0147 98.5307 39.754C98.4387 39.4933 98.3007 39.271 98.1167 39.087C97.9327 38.8877 97.7181 38.7343 97.4727 38.627C97.2274 38.5197 96.9667 38.466 96.6907 38.466C96.1387 38.466 95.6787 38.673 95.3107 39.087C94.9427 39.501 94.7587 40.0377 94.7587 40.697ZM113.023 35.246L108.285 53.163H104.812L105.893 48.609L102.351 35.246H105.985L107.25 41.939C107.327 42.2917 107.388 42.56 107.434 42.744C107.496 42.928 107.588 43.02 107.71 43.02C107.91 43.02 108.078 42.6597 108.216 41.939L109.527 35.246H113.023ZM114.704 44.308C115.088 44.308 115.425 44.3847 115.716 44.538C116.023 44.6913 116.276 44.8907 116.475 45.136C116.69 45.366 116.851 45.6267 116.958 45.918C117.066 46.194 117.119 46.4623 117.119 46.723C117.119 47.0603 117.05 47.3823 116.912 47.689C116.79 47.9957 116.613 48.264 116.383 48.494C116.169 48.724 115.908 48.908 115.601 49.046C115.31 49.184 115.003 49.253 114.681 49.253C114.267 49.253 113.907 49.184 113.6 49.046C113.294 48.9233 113.041 48.7547 112.841 48.54C112.642 48.31 112.489 48.057 112.381 47.781C112.289 47.505 112.243 47.2213 112.243 46.93C112.243 46.6233 112.297 46.3167 112.404 46.01C112.512 45.688 112.665 45.4043 112.864 45.159C113.079 44.8983 113.34 44.6913 113.646 44.538C113.953 44.3847 114.306 44.308 114.704 44.308Z" fill="white" />
    <path d="M2.56836 25L63.9361 3L118.568 25" stroke="white" stroke-width="5" stroke-linecap="round" />
</svg>