<svg width="122" height="54" viewBox="0 0 122 54" fill="none" xmlns="http://www.w3.org/2000/svg">
    <path d="M13.496 35.246L13.657 36.994C13.841 36.7027 14.0633 36.4343 14.324 36.189C14.5847 35.9437 14.853 35.7367 15.129 35.568C15.4203 35.384 15.704 35.246 15.98 35.154C16.2713 35.0467 16.5397 34.993 16.785 34.993C16.8157 35.3917 16.8387 35.8517 16.854 36.373C16.8847 36.879 16.9 37.4003 16.9 37.937C16.9 38.5503 16.8847 39.156 16.854 39.754C16.8387 40.352 16.8157 40.904 16.785 41.41C16.647 41.3487 16.4553 41.3027 16.21 41.272C15.9647 41.2413 15.7577 41.226 15.589 41.226C15.0217 41.226 14.6 41.364 14.324 41.64C14.0633 41.9007 13.933 42.2303 13.933 42.629V49H10.552C10.5673 46.516 10.575 44.1623 10.575 41.939C10.5903 39.7003 10.598 37.4693 10.598 35.246H13.496ZM22.7524 34.993C24.6231 34.993 25.9571 35.6063 26.7544 36.833C27.5671 38.0597 27.9734 39.823 27.9734 42.123C27.9734 44.4383 27.5671 46.2093 26.7544 47.436C25.9571 48.6473 24.6231 49.253 22.7524 49.253C20.8664 49.253 19.5171 48.6473 18.7044 47.436C17.9071 46.2093 17.5084 44.4383 17.5084 42.123C17.5084 39.823 17.9071 38.0597 18.7044 36.833C19.5171 35.6063 20.8664 34.993 22.7524 34.993ZM22.7524 43.848C23.0591 43.848 23.3274 43.7867 23.5574 43.664C23.8028 43.5413 24.0021 43.3803 24.1554 43.181C24.3088 42.9817 24.4238 42.7593 24.5004 42.514C24.5771 42.2533 24.6154 41.985 24.6154 41.709C24.6154 41.433 24.5771 41.1647 24.5004 40.904C24.4238 40.6433 24.3088 40.4133 24.1554 40.214C24.0021 40.0147 23.8028 39.8537 23.5574 39.731C23.3274 39.6083 23.0591 39.547 22.7524 39.547C22.1238 39.547 21.6484 39.7693 21.3264 40.214C21.0198 40.6587 20.8664 41.157 20.8664 41.709C20.8664 41.985 20.9048 42.2533 20.9814 42.514C21.0581 42.7593 21.1731 42.9817 21.3264 43.181C21.4951 43.3803 21.6944 43.5413 21.9244 43.664C22.1544 43.7867 22.4304 43.848 22.7524 43.848ZM33.7583 34.993C35.6289 34.993 36.9629 35.6063 37.7603 36.833C38.5729 38.0597 38.9793 39.823 38.9793 42.123C38.9793 44.4383 38.5729 46.2093 37.7603 47.436C36.9629 48.6473 35.6289 49.253 33.7583 49.253C31.8723 49.253 30.5229 48.6473 29.7103 47.436C28.9129 46.2093 28.5143 44.4383 28.5143 42.123C28.5143 39.823 28.9129 38.0597 29.7103 36.833C30.5229 35.6063 31.8723 34.993 33.7583 34.993ZM33.7583 43.848C34.0649 43.848 34.3333 43.7867 34.5633 43.664C34.8086 43.5413 35.0079 43.3803 35.1613 43.181C35.3146 42.9817 35.4296 42.7593 35.5063 42.514C35.5829 42.2533 35.6213 41.985 35.6213 41.709C35.6213 41.433 35.5829 41.1647 35.5063 40.904C35.4296 40.6433 35.3146 40.4133 35.1613 40.214C35.0079 40.0147 34.8086 39.8537 34.5633 39.731C34.3333 39.6083 34.0649 39.547 33.7583 39.547C33.1296 39.547 32.6543 39.7693 32.3323 40.214C32.0256 40.6587 31.8723 41.157 31.8723 41.709C31.8723 41.985 31.9106 42.2533 31.9873 42.514C32.0639 42.7593 32.1789 42.9817 32.3323 43.181C32.5009 43.3803 32.7003 43.5413 32.9303 43.664C33.1603 43.7867 33.4363 43.848 33.7583 43.848ZM43.1541 35.246V36.465C43.4608 35.9743 43.8671 35.6063 44.3731 35.361C44.8945 35.1157 45.4465 34.993 46.0291 34.993C46.5811 34.993 47.0871 35.1157 47.5471 35.361C48.0071 35.591 48.3598 35.9667 48.6051 36.488C48.8811 35.9973 49.2951 35.6293 49.8471 35.384C50.4145 35.1233 51.0278 34.993 51.6871 34.993C52.6838 34.993 53.4428 35.315 53.9641 35.959C54.5008 36.5877 54.7691 37.6533 54.7691 39.156V49H51.3881V41.939C51.3881 41.3717 51.2655 40.9653 51.0201 40.72C50.7901 40.4593 50.5218 40.329 50.2151 40.329C49.9085 40.329 49.6248 40.4593 49.3641 40.72C49.1035 40.9653 48.9731 41.3103 48.9731 41.755V49H45.5921V42.215C45.5921 41.617 45.4541 41.18 45.1781 40.904C44.9175 40.628 44.6338 40.49 44.3271 40.49C44.0205 40.49 43.7445 40.628 43.4991 40.904C43.2691 41.1647 43.1541 41.5173 43.1541 41.962V49H39.8191C39.8191 48.54 39.8191 48.0263 39.8191 47.459C39.8191 46.8917 39.8191 46.3167 39.8191 45.734C39.8345 45.1513 39.8421 44.5993 39.8421 44.078C39.8421 43.5413 39.8421 43.0737 39.8421 42.675C39.8421 42.2917 39.8421 41.801 39.8421 41.203C39.8421 40.5897 39.8345 39.938 39.8191 39.248C39.8191 38.558 39.8191 37.868 39.8191 37.178C39.8191 36.4727 39.8191 35.8287 39.8191 35.246H43.1541ZM55.8327 29.657H59.0987V36.396C59.5127 35.9973 59.9957 35.6677 60.5477 35.407C61.115 35.131 61.713 34.993 62.3417 34.993C63.0624 34.993 63.7294 35.1847 64.3427 35.568C64.9714 35.936 65.508 36.4573 65.9527 37.132C66.4127 37.7913 66.773 38.5733 67.0337 39.478C67.2944 40.3827 67.4247 41.3563 67.4247 42.399C67.4247 43.3957 67.302 44.3157 67.0567 45.159C66.8114 46.0023 66.474 46.7307 66.0447 47.344C65.6307 47.942 65.1324 48.4097 64.5497 48.747C63.967 49.0843 63.3307 49.253 62.6407 49.253C62.058 49.253 61.46 49.138 60.8467 48.908C60.2334 48.6627 59.6507 48.3177 59.0987 47.873V49H55.9477L55.8327 29.657ZM59.0987 40.697C59.0987 41.3257 59.2674 41.8317 59.6047 42.215C59.9574 42.5983 60.402 42.79 60.9387 42.79C61.5214 42.79 62.012 42.583 62.4107 42.169C62.8247 41.755 63.0317 41.226 63.0317 40.582C63.0317 40.2907 62.978 40.0147 62.8707 39.754C62.7787 39.4933 62.6407 39.271 62.4567 39.087C62.2727 38.8877 62.058 38.7343 61.8127 38.627C61.5827 38.5197 61.3297 38.466 61.0537 38.466C60.4864 38.466 60.0187 38.673 59.6507 39.087C59.2827 39.501 59.0987 40.0377 59.0987 40.697ZM74.2812 49V47.781C73.9132 48.2257 73.4686 48.586 72.9472 48.862C72.4259 49.1227 71.8969 49.253 71.3602 49.253C71.0229 49.253 70.6932 49.1993 70.3712 49.092C70.0646 49 69.7809 48.8697 69.5202 48.701C69.2596 48.5323 69.0296 48.333 68.8302 48.103C68.6462 47.8577 68.5082 47.597 68.4162 47.321C68.3549 47.1063 68.3012 46.7997 68.2552 46.401C68.2246 45.987 68.2092 45.55 68.2092 45.09V35.246H71.5902V42.146C71.5902 42.606 71.6976 42.974 71.9122 43.25C72.1269 43.5107 72.4182 43.641 72.7862 43.641C72.9702 43.641 73.1542 43.6027 73.3382 43.526C73.5376 43.4493 73.7062 43.3497 73.8442 43.227C73.9976 43.1043 74.1202 42.9587 74.2122 42.79C74.3042 42.6213 74.3502 42.445 74.3502 42.261V35.246H77.7312C77.7159 35.752 77.7006 36.2887 77.6852 36.856C77.6699 37.408 77.6546 37.9677 77.6392 38.535C77.6239 39.087 77.6086 39.639 77.5932 40.191C77.5932 40.743 77.5932 41.2643 77.5932 41.755C77.5932 42.0463 77.5932 42.4833 77.5932 43.066C77.5932 43.6487 77.5932 44.285 77.5932 44.975C77.6086 45.665 77.6162 46.3703 77.6162 47.091C77.6162 47.8117 77.6162 48.448 77.6162 49H74.2812ZM89.9209 49H86.7699V47.873C86.2179 48.3177 85.6352 48.6627 85.0219 48.908C84.4085 49.138 83.8105 49.253 83.2279 49.253C82.5379 49.253 81.9015 49.0843 81.3189 48.747C80.7362 48.4097 80.2302 47.942 79.8009 47.344C79.3869 46.7307 79.0572 46.0023 78.8119 45.159C78.5665 44.3157 78.4439 43.3957 78.4439 42.399C78.4439 41.3563 78.5742 40.3827 78.8349 39.478C79.0955 38.5733 79.4482 37.7913 79.8929 37.132C80.3529 36.4573 80.8895 35.936 81.5029 35.568C82.1315 35.1847 82.8062 34.993 83.5269 34.993C84.1555 34.993 84.7535 35.131 85.3209 35.407C85.8882 35.6677 86.3712 35.9973 86.7699 36.396V29.657H90.0359L89.9209 49ZM82.8369 40.697C82.8369 41.3257 83.0055 41.8317 83.3429 42.215C83.6955 42.5983 84.1402 42.79 84.6769 42.79C85.2595 42.79 85.7502 42.583 86.1489 42.169C86.5629 41.755 86.7699 41.226 86.7699 40.582C86.7699 40.2907 86.7162 40.0147 86.6089 39.754C86.5169 39.4933 86.3789 39.271 86.1949 39.087C86.0109 38.8877 85.7962 38.7343 85.5509 38.627C85.3055 38.5197 85.0449 38.466 84.7689 38.466C84.2169 38.466 83.7569 38.673 83.3889 39.087C83.0209 39.501 82.8369 40.0377 82.8369 40.697ZM102.274 49H99.1234V47.873C98.5714 48.3177 97.9887 48.6627 97.3754 48.908C96.762 49.138 96.164 49.253 95.5814 49.253C94.8914 49.253 94.255 49.0843 93.6724 48.747C93.0897 48.4097 92.5837 47.942 92.1544 47.344C91.7404 46.7307 91.4107 46.0023 91.1654 45.159C90.92 44.3157 90.7974 43.3957 90.7974 42.399C90.7974 41.3563 90.9277 40.3827 91.1884 39.478C91.449 38.5733 91.8017 37.7913 92.2464 37.132C92.7064 36.4573 93.243 35.936 93.8564 35.568C94.485 35.1847 95.1597 34.993 95.8804 34.993C96.509 34.993 97.107 35.131 97.6744 35.407C98.2417 35.6677 98.7247 35.9973 99.1234 36.396V29.657H102.389L102.274 49ZM95.1904 40.697C95.1904 41.3257 95.359 41.8317 95.6964 42.215C96.049 42.5983 96.4937 42.79 97.0304 42.79C97.613 42.79 98.1037 42.583 98.5024 42.169C98.9164 41.755 99.1234 41.226 99.1234 40.582C99.1234 40.2907 99.0697 40.0147 98.9624 39.754C98.8704 39.4933 98.7324 39.271 98.5484 39.087C98.3644 38.8877 98.1497 38.7343 97.9044 38.627C97.659 38.5197 97.3984 38.466 97.1224 38.466C96.5704 38.466 96.1104 38.673 95.7424 39.087C95.3744 39.501 95.1904 40.0377 95.1904 40.697ZM113.455 35.246L108.717 53.163H105.244L106.325 48.609L102.783 35.246H106.417L107.682 41.939C107.759 42.2917 107.82 42.56 107.866 42.744C107.927 42.928 108.019 43.02 108.142 43.02C108.341 43.02 108.51 42.6597 108.648 41.939L109.959 35.246H113.455ZM115.136 44.308C115.519 44.308 115.857 44.3847 116.148 44.538C116.455 44.6913 116.708 44.8907 116.907 45.136C117.122 45.366 117.283 45.6267 117.39 45.918C117.497 46.194 117.551 46.4623 117.551 46.723C117.551 47.0603 117.482 47.3823 117.344 47.689C117.221 47.9957 117.045 48.264 116.815 48.494C116.6 48.724 116.34 48.908 116.033 49.046C115.742 49.184 115.435 49.253 115.113 49.253C114.699 49.253 114.339 49.184 114.032 49.046C113.725 48.9233 113.472 48.7547 113.273 48.54C113.074 48.31 112.92 48.057 112.813 47.781C112.721 47.505 112.675 47.2213 112.675 46.93C112.675 46.6233 112.729 46.3167 112.836 46.01C112.943 45.688 113.097 45.4043 113.296 45.159C113.511 44.8983 113.771 44.6913 114.078 44.538C114.385 44.3847 114.737 44.308 115.136 44.308Z" fill="#6177D4" />
    <path d="M3 25L64.3677 3L119 25" stroke="#6177D4" stroke-width="5" stroke-linecap="round" />
</svg>
